<svg xmlns="http://www.w3.org/2000/svg" version="1.1" xmlns:xlink="http://www.w3.org/1999/xlink" xmlns:svgjs="http://svgjs.dev/svgjs" width="1440" height="560" preserveAspectRatio="none" viewBox="0 0 1440 560"><g mask="url(&quot;#SvgjsMask1080&quot;)" fill="none"><rect width="1440" height="560" x="0" y="0" fill="rgba(29, 29, 29, 1)"></rect><path d="M305 29L304 -209" stroke-width="6" stroke="url(&quot;#SvgjsLinearGradient1081&quot;)" stroke-linecap="round" class="Up"></path><path d="M856 211L855 -10" stroke-width="8" stroke="url(&quot;#SvgjsLinearGradient1082&quot;)" stroke-linecap="round" class="Down"></path><path d="M321 239L320 414" stroke-width="8" stroke="url(&quot;#SvgjsLinearGradient1081&quot;)" stroke-linecap="round" class="Up"></path><path d="M235 535L234 923" stroke-width="10" stroke="url(&quot;#SvgjsLinearGradient1082&quot;)" stroke-linecap="round" class="Down"></path><path d="M59 490L58 689" stroke-width="10" stroke="url(&quot;#SvgjsLinearGradient1081&quot;)" stroke-linecap="round" class="Up"></path><path d="M913 315L912 676" stroke-width="6" stroke="url(&quot;#SvgjsLinearGradient1082&quot;)" stroke-linecap="round" class="Down"></path><path d="M1352 241L1351 548" stroke-width="10" stroke="url(&quot;#SvgjsLinearGradient1081&quot;)" stroke-linecap="round" class="Up"></path><path d="M1279 122L1278 437" stroke-width="8" stroke="url(&quot;#SvgjsLinearGradient1081&quot;)" stroke-linecap="round" class="Up"></path><path d="M686 492L685 212" stroke-width="10" stroke="url(&quot;#SvgjsLinearGradient1082&quot;)" stroke-linecap="round" class="Down"></path><path d="M511 396L510 3" stroke-width="10" stroke="url(&quot;#SvgjsLinearGradient1081&quot;)" stroke-linecap="round" class="Up"></path><path d="M179 105L178 330" stroke-width="10" stroke="url(&quot;#SvgjsLinearGradient1081&quot;)" stroke-linecap="round" class="Up"></path><path d="M518 308L517 -7" stroke-width="6" stroke="url(&quot;#SvgjsLinearGradient1082&quot;)" stroke-linecap="round" class="Down"></path><path d="M1273 555L1272 889" stroke-width="10" stroke="url(&quot;#SvgjsLinearGradient1081&quot;)" stroke-linecap="round" class="Up"></path><path d="M989 454L988 871" stroke-width="8" stroke="url(&quot;#SvgjsLinearGradient1082&quot;)" stroke-linecap="round" class="Down"></path><path d="M846 324L845 641" stroke-width="10" stroke="url(&quot;#SvgjsLinearGradient1082&quot;)" stroke-linecap="round" class="Down"></path><path d="M1341 418L1340 722" stroke-width="6" stroke="url(&quot;#SvgjsLinearGradient1081&quot;)" stroke-linecap="round" class="Up"></path><path d="M1006 165L1005 482" stroke-width="6" stroke="url(&quot;#SvgjsLinearGradient1082&quot;)" stroke-linecap="round" class="Down"></path><path d="M541 461L540 274" stroke-width="10" stroke="url(&quot;#SvgjsLinearGradient1082&quot;)" stroke-linecap="round" class="Down"></path><path d="M927 447L926 278" stroke-width="6" stroke="url(&quot;#SvgjsLinearGradient1082&quot;)" stroke-linecap="round" class="Down"></path><path d="M817 493L816 884" stroke-width="10" stroke="url(&quot;#SvgjsLinearGradient1081&quot;)" stroke-linecap="round" class="Up"></path><path d="M205 374L204 734" stroke-width="10" stroke="url(&quot;#SvgjsLinearGradient1082&quot;)" stroke-linecap="round" class="Down"></path><path d="M525 269L524 590" stroke-width="10" stroke="url(&quot;#SvgjsLinearGradient1082&quot;)" stroke-linecap="round" class="Down"></path><path d="M439 15L438 -380" stroke-width="10" stroke="url(&quot;#SvgjsLinearGradient1081&quot;)" stroke-linecap="round" class="Up"></path><path d="M189 119L188 383" stroke-width="10" stroke="url(&quot;#SvgjsLinearGradient1081&quot;)" stroke-linecap="round" class="Up"></path><path d="M73 533L72 687" stroke-width="10" stroke="url(&quot;#SvgjsLinearGradient1081&quot;)" stroke-linecap="round" class="Up"></path><path d="M174 268L173 482" stroke-width="10" stroke="url(&quot;#SvgjsLinearGradient1082&quot;)" stroke-linecap="round" class="Down"></path><path d="M925 3L924 -395" stroke-width="6" stroke="url(&quot;#SvgjsLinearGradient1081&quot;)" stroke-linecap="round" class="Up"></path><path d="M1043 163L1042 -101" stroke-width="8" stroke="url(&quot;#SvgjsLinearGradient1081&quot;)" stroke-linecap="round" class="Up"></path><path d="M632 9L631 -223" stroke-width="8" stroke="url(&quot;#SvgjsLinearGradient1081&quot;)" stroke-linecap="round" class="Up"></path><path d="M489 47L488 199" stroke-width="8" stroke="url(&quot;#SvgjsLinearGradient1081&quot;)" stroke-linecap="round" class="Up"></path><path d="M261 194L260 501" stroke-width="8" stroke="url(&quot;#SvgjsLinearGradient1082&quot;)" stroke-linecap="round" class="Down"></path><path d="M493 157L492 325" stroke-width="6" stroke="url(&quot;#SvgjsLinearGradient1081&quot;)" stroke-linecap="round" class="Up"></path><path d="M613 537L612 767" stroke-width="10" stroke="url(&quot;#SvgjsLinearGradient1081&quot;)" stroke-linecap="round" class="Up"></path><path d="M1434 396L1433 58" stroke-width="8" stroke="url(&quot;#SvgjsLinearGradient1082&quot;)" stroke-linecap="round" class="Down"></path><path d="M107 351L106 50" stroke-width="6" stroke="url(&quot;#SvgjsLinearGradient1081&quot;)" stroke-linecap="round" class="Up"></path><path d="M861 511L860 191" stroke-width="6" stroke="url(&quot;#SvgjsLinearGradient1081&quot;)" stroke-linecap="round" class="Up"></path></g><defs><mask id="SvgjsMask1080"><rect width="1440" height="560" fill="#ffffff"></rect></mask><linearGradient x1="0%" y1="100%" x2="0%" y2="0%" id="SvgjsLinearGradient1081"><stop stop-color="rgba(59, 59, 59, 0)" offset="0"></stop><stop stop-color="rgba(59, 59, 59, 1)" offset="1"></stop></linearGradient><linearGradient x1="0%" y1="0%" x2="0%" y2="100%" id="SvgjsLinearGradient1082"><stop stop-color="rgba(59, 59, 59, 0)" offset="0"></stop><stop stop-color="rgba(59, 59, 59, 1)" offset="1"></stop></linearGradient></defs></svg>