<svg xmlns="http://www.w3.org/2000/svg" version="1.1" xmlns:xlink="http://www.w3.org/1999/xlink" xmlns:svgjs="http://svgjs.dev/svgjs" width="1440" height="560" preserveAspectRatio="none" viewBox="0 0 1440 560"><g mask="url(&quot;#SvgjsMask1019&quot;)" fill="none"><rect width="1440" height="560" x="0" y="0" fill="rgba(29, 29, 29, 1)"></rect><path d="M0,595.273C110.388,600.361,208.589,527.732,294.434,458.148C373.761,393.847,422.218,304.906,469.732,214.519C519.947,118.994,576.561,24.639,579.033,-83.252C581.756,-202.115,567.464,-334.685,484.26,-419.614C401.777,-503.807,269.467,-505.704,152.332,-518.796C51.718,-530.041,-47.306,-520.378,-143.822,-489.813C-238.684,-459.771,-322.757,-410.068,-397.699,-344.608C-482.429,-270.598,-576.74,-195.881,-604.998,-86.986C-634.342,26.093,-614.978,153.584,-552.614,252.37C-492.96,346.863,-372.446,372.868,-277.493,431.788C-184.385,489.562,-109.46,590.228,0,595.273" fill="#131313"></path><path d="M1440 1006.105C1525.599 1003.331 1622.022 997.6220000000001 1681.875 936.365 1740.374 876.494 1711.194 775.71 1741.394 697.642 1768.984 626.3199999999999 1848.121 577.451 1850.285 501.01 1852.532 421.61699999999996 1803.366 350.199 1752.967 288.813 1701.6 226.248 1640.306 163.878 1560.837 148.466 1483.361 133.44099999999997 1408.463 175.31599999999997 1336.666 208.07799999999997 1273.521 236.892 1214.9859999999999 273.201 1170.58 326.546 1126.791 379.15 1095.17 441.275 1086.075 509.113 1077.032 576.56 1104.44 639.965 1119.667 706.2909999999999 1139.106 790.965 1124.407 893.009 1187.836 952.375 1251.879 1012.316 1352.328 1008.946 1440 1006.105" fill="#272727"></path></g><defs><mask id="SvgjsMask1019"><rect width="1440" height="560" fill="#ffffff"></rect></mask></defs></svg>